<svg width="22" height="18" viewBox="0 0 22 18" fill="none" xmlns="http://www.w3.org/2000/svg">
<path d="M16.0769 0C14.1412 0 12.0396 0.899949 11 2.7C9.9604 0.899949 7.85881 0 5.92306 0C2.53624 0 0 2.21103 0 5.92052C0 7.52047 0.616884 9.59845 2.00961 11.3234C3.40224 13.0485 4.23068 13.9672 6.92784 15.8234C9.625 17.6798 11 18 11 18C11 18 12.375 17.6798 15.0722 15.8234C17.7693 13.9672 18.5978 13.0485 19.9904 11.3234C21.3831 9.59845 22 7.52047 22 5.92052C22 2.21103 19.4638 0 16.0769 0Z" fill="#FD4042"/>
</svg>
